<?xml version="1.0" encoding="UTF-8" standalone="no"?>
<!-- Created with Inkscape (http://www.inkscape.org/) -->

<svg
   xmlns:dc="http://purl.org/dc/elements/1.1/"
   xmlns:cc="http://creativecommons.org/ns#"
   xmlns:rdf="http://www.w3.org/1999/02/22-rdf-syntax-ns#"
   xmlns:svg="http://www.w3.org/2000/svg"
   xmlns="http://www.w3.org/2000/svg"
   xmlns:sodipodi="http://sodipodi.sourceforge.net/DTD/sodipodi-0.dtd"
   xmlns:inkscape="http://www.inkscape.org/namespaces/inkscape"
   width="54.449612mm"
   height="55.020256mm"
   viewBox="0 0 54.449612 55.020256"
   version="1.1"
   id="svg838"
   inkscape:version="0.92.3 (2405546, 2018-03-11)"
   sodipodi:docname="Vintage Halloween bat.svg">
  <title
     id="title1400">Vintage Halloween bat</title>
  <defs
     id="defs832" />
  <sodipodi:namedview
     id="base"
     pagecolor="#ffffff"
     bordercolor="#666666"
     borderopacity="1.0"
     inkscape:pageopacity="0.0"
     inkscape:pageshadow="2"
     inkscape:zoom="0.35146644"
     inkscape:cx="2330.7381"
     inkscape:cy="789.61591"
     inkscape:document-units="mm"
     inkscape:current-layer="layer1"
     showgrid="false"
     fit-margin-top="0"
     fit-margin-left="0"
     fit-margin-right="0"
     fit-margin-bottom="0"
     inkscape:window-width="1920"
     inkscape:window-height="1017"
     inkscape:window-x="3832"
     inkscape:window-y="-8"
     inkscape:window-maximized="1" />
  <metadata
     id="metadata835">
    <rdf:RDF>
      <cc:Work
         rdf:about="">
        <dc:format>image/svg+xml</dc:format>
        <dc:type
           rdf:resource="http://purl.org/dc/dcmitype/StillImage" />
        <dc:title>Vintage Halloween bat</dc:title>
        <cc:license
           rdf:resource="http://creativecommons.org/publicdomain/zero/1.0/" />
      </cc:Work>
      <cc:License
         rdf:about="http://creativecommons.org/publicdomain/zero/1.0/">
        <cc:permits
           rdf:resource="http://creativecommons.org/ns#Reproduction" />
        <cc:permits
           rdf:resource="http://creativecommons.org/ns#Distribution" />
        <cc:permits
           rdf:resource="http://creativecommons.org/ns#DerivativeWorks" />
      </cc:License>
    </rdf:RDF>
  </metadata>
  <g
     inkscape:label="Layer 1"
     inkscape:groupmode="layer"
     id="layer1"
     transform="translate(19.434157,-239.29575)">
    <path
       style="fill:#000000;stroke-width:1"
       d="m -1.191536,294.29332 c -0.8144438,-0.10661 -1.1971307,-0.14375 -1.515947,-0.14715 -0.1933388,-0.002 -0.4207312,-0.0182 -0.5053162,-0.036 -0.084587,-0.0177 -0.3547698,-0.0407 -0.6004071,-0.0511 -0.3208491,-0.0135 -0.4786347,-0.0398 -0.56032,-0.0933 -0.062537,-0.041 -0.1545638,-0.0638 -0.2045024,-0.0508 -0.04994,0.0131 -0.1438287,0.007 -0.2086409,-0.0145 -0.064812,-0.021 -0.2313964,-0.0466 -0.3701881,-0.0569 -0.1387917,-0.0103 -0.2772047,-0.0391 -0.3075831,-0.0639 -0.03038,-0.0248 -0.208224,-0.0572 -0.3952088,-0.072 -0.2102785,-0.0166 -0.4051252,-0.0608 -0.5107618,-0.11586 -0.093935,-0.049 -0.2968647,-0.10922 -0.4509568,-0.1339 -0.1540921,-0.0247 -0.3239613,-0.0734 -0.3774871,-0.1083 -0.053526,-0.0349 -0.1284635,-0.0634 -0.1665277,-0.0634 -0.038064,0 -0.1452836,-0.0388 -0.2382636,-0.0862 -0.092982,-0.0474 -0.3022953,-0.10753 -0.4651429,-0.13355 -0.1628459,-0.026 -0.3519398,-0.0762 -0.420208,-0.11148 -0.068267,-0.0353 -0.1779222,-0.0642 -0.2436793,-0.0642 -0.065757,0 -0.1507756,-0.0276 -0.1889296,-0.0613 -0.038154,-0.0337 -0.1682366,-0.0945 -0.289074,-0.135 -0.1208357,-0.0405 -0.2526091,-0.10343 -0.2928307,-0.1398 -0.04022,-0.0364 -0.1094264,-0.061 -0.1537915,-0.0546 -0.085954,0.0123 -0.3410836,-0.0392 -0.4527154,-0.0913 -0.03704,-0.0173 -0.156333,-0.0717 -0.265086,-0.12091 -0.108753,-0.0492 -0.306486,-0.13994 -0.439405,-0.2016 -0.132919,-0.0616 -0.342185,-0.13443 -0.465032,-0.16173 -0.122848,-0.0273 -0.330466,-0.11767 -0.461376,-0.20081 -0.130908,-0.0832 -0.336882,-0.20077 -0.457717,-0.26136 -0.120838,-0.0606 -0.338344,-0.1799 -0.483347,-0.26515 -0.299422,-0.17601 -0.734756,-0.38687 -1.076542,-0.52144 -0.03625,-0.0143 -0.224097,-0.12586 -0.417435,-0.24797 -0.193338,-0.12211 -0.451918,-0.26781 -0.574619,-0.32378 -0.122702,-0.056 -0.308571,-0.16368 -0.413043,-0.23936 -0.104471,-0.0757 -0.213922,-0.1376 -0.243223,-0.1376 -0.0293,0 -0.130146,-0.062 -0.224096,-0.1377 -0.208488,-0.16807 -0.583183,-0.4205 -0.825695,-0.55625 -0.099,-0.0554 -0.269652,-0.18889 -0.379236,-0.2966 -0.109582,-0.10772 -0.220346,-0.19584 -0.24614,-0.19584 -0.02579,0 -0.105992,-0.0544 -0.178218,-0.12084 -0.07223,-0.0665 -0.243271,-0.2197 -0.380099,-0.34054 -0.532686,-0.47042 -0.907756,-0.8582 -1.071624,-1.10793 -0.03859,-0.0588 -0.06568,-0.21624 -0.06848,-0.39802 -0.0041,-0.26615 0.0096,-0.31945 0.119538,-0.46353 0.178366,-0.23385 0.285205,-0.24575 0.529746,-0.059 0.111436,0.0851 0.242618,0.20556 0.291514,0.26772 0.04889,0.0622 0.11908,0.11302 0.155967,0.11302 0.06246,0 0.185621,0.0462 0.453841,0.17029 0.06042,0.0279 0.198831,0.10827 0.307585,0.17848 0.108752,0.0702 0.230817,0.12923 0.271256,0.13113 0.04044,0.002 0.130304,0.0512 0.199699,0.10962 0.0694,0.0584 0.204382,0.12005 0.299969,0.13703 0.09559,0.017 0.233117,0.055 0.305618,0.0844 0.207225,0.0842 0.55862,0.20567 0.703048,0.24298 0.0725,0.0187 0.228543,0.0765 0.346758,0.12829 0.118215,0.0518 0.224058,0.0851 0.235207,0.074 0.01114,-0.0111 0.07261,0 0.136587,0.0251 0.06398,0.025 0.215185,0.0626 0.33602,0.0837 0.120838,0.0211 0.377889,0.0687 0.571228,0.10582 0.193337,0.0371 0.489936,0.0878 0.659108,0.11264 0.16917,0.0248 0.406449,0.0923 0.527286,0.15009 0.166164,0.0794 0.353546,0.11697 0.768958,0.15416 0.302091,0.027 0.687669,0.0694 0.856841,0.0942 0.16917,0.0248 0.416336,0.0512 0.549256,0.0586 0.132919,0.007 0.2926145,0.034 0.3548758,0.059 0.1195503,0.0481 0.6848045,0.0409 0.8823516,-0.0111 0.064208,-0.0169 0.156359,-0.01 0.204778,0.0163 0.066109,0.0354 0.1191086,0.0309 0.2128094,-0.018 0.1424553,-0.0743 0.271535,-0.0826 0.3649751,-0.0235 0.039846,0.0252 0.083668,0.0248 0.1148271,-0.001 0.031998,-0.0265 0.1755656,-0.0244 0.3933156,0.006 0.2338893,0.0325 0.3999636,0.0337 0.5223106,0.004 0.176582,-0.0434 0.4272546,-0.0393 0.9941097,0.0162 0.2312968,0.0226 0.3462851,0.009 0.5887204,-0.0692 0.2534312,-0.0819 0.3325873,-0.0902 0.4983793,-0.0522 0.1223836,0.028 0.2490037,0.0301 0.3340304,0.006 0.075313,-0.0217 0.2852311,-0.0489 0.4664864,-0.0604 0.1812552,-0.0115 0.4845353,-0.0509 0.6739581,-0.0876 0.1894228,-0.0367 0.4221827,-0.0667 0.5172437,-0.0667 0.1117913,0 0.2327549,-0.0396 0.3424752,-0.11226 0.1292989,-0.0856 0.2204987,-0.11073 0.3835372,-0.10584 0.2062196,0.006 0.6388849,-0.1234 0.735884,-0.2204 0.024667,-0.0247 0.1359817,-0.0448 0.2473661,-0.0448 0.1113828,0 0.2408975,-0.029 0.2878102,-0.0645 0.0469111,-0.0355 0.16996555,-0.0651 0.27345314,-0.0659 0.10348594,-8.3e-4 0.25914414,-0.0311 0.34590473,-0.0673 0.0867606,-0.0362 0.18469465,-0.0659 0.21763052,-0.0659 0.0329375,0 0.15629095,-0.0593 0.27412239,-0.13182 0.12830907,-0.079 0.27445619,-0.13182 0.36437701,-0.13182 0.0825772,0 0.19441332,-0.031 0.24852534,-0.0689 0.11254529,-0.0788 0.65904127,-0.23867 0.81601317,-0.23867 0.057764,0 0.1288222,-0.0287 0.1579035,-0.0637 0.066104,-0.0797 0.3646446,-0.22259 0.5902433,-0.28261 0.094041,-0.025 0.2145399,-0.0864 0.2677734,-0.13641 0.053235,-0.05 0.1591873,-0.0988 0.2354503,-0.10848 0.076263,-0.01 0.1907663,-0.0585 0.2544526,-0.10863 0.063686,-0.0501 0.1401202,-0.0911 0.1698525,-0.0911 0.029732,0 0.1012157,-0.0359 0.1588519,-0.0799 0.1065483,-0.0812 0.2282991,-0.13173 0.5456191,-0.2265 0.1140831,-0.0341 0.202179,-0.0965 0.2473695,-0.1752 0.067642,-0.11786 0.1608679,-0.16354 0.6300181,-0.30867 0.09667,-0.0299 0.2647425,-0.13788 0.3734947,-0.23993 0.2164381,-0.20311 0.623968,-0.47841 0.7799434,-0.52689 0.054378,-0.0169 0.098867,-0.0492 0.098867,-0.0717 0,-0.0225 0.038378,-0.041 0.085288,-0.041 0.046908,0 0.097507,-0.0198 0.112444,-0.0439 0.01493,-0.0242 0.060594,-0.0441 0.1014598,-0.0443 0.040866,0 0.1436677,-0.0662 0.2284487,-0.14653 0.084781,-0.0804 0.2389677,-0.19969 0.342638,-0.26513 0.1036703,-0.0654 0.1998722,-0.14865 0.2137826,-0.1849 0.013917,-0.0362 0.1008852,-0.10447 0.1932773,-0.15161 0.092392,-0.0471 0.183876,-0.11389 0.2032967,-0.14835 0.019422,-0.0344 0.1341781,-0.11303 0.2550155,-0.17462 0.1208357,-0.0616 0.2867424,-0.18183 0.3686802,-0.26721 0.081938,-0.0854 0.1755954,-0.15524 0.2081277,-0.15524 0.032532,0 0.088066,-0.0692 0.1234083,-0.15379 0.035342,-0.0846 0.083838,-0.1538 0.1077689,-0.1538 0.02393,0 0.1386356,-0.0795 0.2548993,-0.17657 0.1162654,-0.0971 0.2984689,-0.24945 0.4048977,-0.33851 0.1064304,-0.089 0.2319661,-0.2271 0.2789684,-0.30676 0.051458,-0.0872 0.1204953,-0.14485 0.1735129,-0.14485 0.052496,0 0.2731807,-0.18152 0.5465095,-0.44953 0.252152,-0.24724 0.489632,-0.46698 0.527733,-0.48831 0.08961,-0.0501 0.38956,-0.35008 0.439697,-0.43966 0.0213,-0.0381 0.209597,-0.24545 0.418437,-0.46087 0.20884,-0.21541 0.409405,-0.4485 0.445702,-0.51796 0.0363,-0.0695 0.176489,-0.27455 0.311539,-0.45573 0.13505,-0.18119 0.245546,-0.3542 0.245546,-0.38448 0,-0.0303 0.02833,-0.0551 0.06295,-0.0551 0.03462,0 0.0745,-0.0346 0.08861,-0.0769 0.01412,-0.0423 0.123169,-0.18565 0.242346,-0.31857 0.119178,-0.13292 0.228659,-0.28886 0.243291,-0.34654 0.01463,-0.0577 0.07498,-0.1683 0.134108,-0.24583 0.05913,-0.0775 0.107506,-0.16379 0.107506,-0.19172 0,-0.0279 0.0194,-0.0508 0.0431,-0.0508 0.02371,0 0.05531,-0.0486 0.07022,-0.10805 0.01491,-0.0594 0.05742,-0.13319 0.09445,-0.16392 0.03703,-0.0307 0.135017,-0.20442 0.217752,-0.38597 0.08273,-0.18154 0.187026,-0.36977 0.231761,-0.41828 0.08934,-0.0969 0.236886,-0.33416 0.314419,-0.50564 0.02732,-0.0604 0.0868,-0.18175 0.132179,-0.26962 0.04538,-0.0879 0.08251,-0.19025 0.08251,-0.2275 0,-0.0372 0.04943,-0.10661 0.109852,-0.15414 0.06042,-0.0475 0.109852,-0.11376 0.109852,-0.1472 0,-0.0334 0.02803,-0.10081 0.06228,-0.14971 0.03425,-0.0489 0.0769,-0.167 0.09478,-0.26244 0.04357,-0.23263 0.122056,-0.41292 0.302742,-0.69537 0.08298,-0.12972 0.164108,-0.29276 0.180287,-0.36231 0.01618,-0.0696 0.07436,-0.20556 0.129276,-0.30223 0.05492,-0.0967 0.130104,-0.27786 0.167071,-0.40266 0.03696,-0.12479 0.108134,-0.30275 0.158152,-0.39546 0.05002,-0.0927 0.147561,-0.31687 0.216762,-0.49812 0.06984,-0.18294 0.162893,-0.34911 0.209151,-0.37351 0.04583,-0.0242 0.112992,-0.0632 0.149243,-0.0868 0.03625,-0.0236 0.153931,-0.0488 0.261512,-0.056 0.10758,-0.007 0.315199,-0.0387 0.461375,-0.0699 0.317489,-0.0679 0.68366,-0.0592 0.924881,0.0219 0.173417,0.0583 0.175944,0.0623 0.189323,0.29782 0.008,0.14115 -0.01184,0.29384 -0.04856,0.3735 -0.03417,0.0741 -0.106985,0.2281 -0.161816,0.34222 -0.05483,0.11411 -0.09009,0.2442 -0.07836,0.28908 0.01174,0.0449 -0.0056,0.11843 -0.03849,0.16343 -0.03291,0.045 -0.05983,0.11759 -0.05983,0.16131 0,0.0437 -0.03559,0.11507 -0.07909,0.15857 -0.04682,0.0468 -0.07909,0.14353 -0.07909,0.23699 0,0.10384 -0.04062,0.21115 -0.11864,0.31344 -0.06525,0.0856 -0.118639,0.18401 -0.118639,0.2188 0,0.0622 -0.138803,0.41749 -0.222403,0.56928 -0.02345,0.0426 -0.07429,0.17111 -0.112966,0.28562 -0.03868,0.1145 -0.176778,0.42748 -0.306884,0.69549 -0.130107,0.26801 -0.236584,0.50529 -0.236616,0.52728 -3.1e-5,0.022 -0.07912,0.1539 -0.175761,0.29312 -0.09664,0.13921 -0.175705,0.28294 -0.175705,0.3194 0,0.0742 -0.180927,0.42375 -0.37457,0.72372 -0.07021,0.10875 -0.171274,0.29025 -0.224594,0.40333 -0.05332,0.11307 -0.187486,0.33782 -0.298148,0.49943 -0.11066,0.16162 -0.201201,0.31765 -0.201201,0.34674 0,0.0291 -0.06921,0.13375 -0.153791,0.23257 -0.08458,0.0988 -0.153792,0.20024 -0.153792,0.22537 0,0.0251 -0.06921,0.0985 -0.153793,0.16301 -0.08459,0.0645 -0.153792,0.14651 -0.153792,0.1822 0,0.061 -0.157036,0.31603 -0.224215,0.36408 -0.04813,0.0344 -0.434892,0.53965 -0.434892,0.5681 0,0.014 -0.118639,0.14898 -0.263643,0.29995 -0.145003,0.15096 -0.263644,0.29283 -0.263644,0.31524 0,0.0224 -0.02537,0.0669 -0.05637,0.0988 -0.031,0.0319 -0.103426,0.12727 -0.160935,0.21186 -0.162086,0.2384 -0.898404,1.01063 -0.963628,1.01063 -0.019,0 -0.06178,0.0544 -0.09505,0.12083 -0.03328,0.0665 -0.140426,0.19993 -0.238112,0.2966 -0.09769,0.0967 -0.283918,0.29881 -0.413846,0.44919 -0.129927,0.15038 -0.277711,0.28659 -0.328407,0.30268 -0.0507,0.0161 -0.224108,0.16988 -0.385358,0.34175 -0.161251,0.17186 -0.474559,0.46078 -0.696242,0.64203 -1.1070863,0.90519 -1.2817168,1.04393 -1.4933471,1.1864 -0.1256469,0.0846 -0.3011161,0.21311 -0.3899327,0.28561 -0.088817,0.0725 -0.2010297,0.15565 -0.249364,0.18477 -0.2863023,0.17251 -0.5449947,0.33552 -0.6676838,0.42075 -0.077218,0.0536 -0.300676,0.19496 -0.4965724,0.31405 -0.1958964,0.11908 -0.4855733,0.34153 -0.6437259,0.49433 -0.158151,0.15279 -0.3202712,0.27792 -0.3602669,0.27806 -0.1391255,4.9e-4 -0.4084549,0.0938 -0.4829625,0.16738 -0.041241,0.0407 -0.1536537,0.10041 -0.2498058,0.13263 -0.1764491,0.0591 -0.4075266,0.16492 -1.2539397,0.57401 -0.2551733,0.12333 -0.4877771,0.22424 -0.5168966,0.22424 -0.02912,0 -0.087279,0.0188 -0.1292441,0.0418 -0.1146112,0.0628 -0.3696932,0.16693 -0.4937341,0.20156 -0.06042,0.0169 -0.1395125,0.0552 -0.1757632,0.0852 -0.036251,0.03 -0.1625669,0.0781 -0.2807023,0.10682 -0.1181353,0.0288 -0.3058243,0.10075 -0.4170858,0.15998 -0.1112616,0.0592 -0.2256005,0.10769 -0.2540889,0.10769 -0.028488,0 -0.21589,0.0692 -0.4164498,0.15379 -0.20055971,0.0846 -0.3960193,0.15379 -0.4343526,0.15379 -0.13035677,0 -0.63580401,0.19034 -0.68615444,0.25839 -0.03482746,0.0471 -0.14885912,0.0731 -0.373493,0.0851 -0.1778474,0.01 -0.35301935,0.0421 -0.38927007,0.0722 -0.0362507,0.0301 -0.18349725,0.0776 -0.32721139,0.1054 -0.1437158,0.0278 -0.3513337,0.0945 -0.4613762,0.14826 -0.1318432,0.0643 -0.2899842,0.0996 -0.4637179,0.10324 -0.2772878,0.006 -0.5480505,0.053 -1.164424,0.20254 -0.2054207,0.0498 -0.5020196,0.0972 -0.6591077,0.10516 -0.3642277,0.0185 -0.3402217,0.0154 -0.8494207,0.11239 -0.2375927,0.0453 -0.4488675,0.0719 -0.4695023,0.0591 -0.020633,-0.0128 -0.1228385,-0.004 -0.2271216,0.0184 -0.1042831,0.0229 -0.4664299,0.0538 -0.8047716,0.0688 -0.3383434,0.015 -0.6843743,0.0448 -0.7689593,0.0662 -0.1798868,0.0455 -0.8564241,0.0379 -0.9044744,-0.0102 -0.062255,-0.0622 -0.2244711,-0.0328 -0.3041337,0.0552 -0.092316,0.102 -0.097833,0.0935 0.1366394,0.21165 0.1181985,0.0596 0.1952254,0.076 0.2235494,0.0477 0.028322,-0.0283 0.1379696,0.0103 0.3182152,0.11223 0.1512506,0.0855 0.2989837,0.15543 0.3282942,0.15543 0.02931,0 0.091673,0.029 0.1385857,0.0645 0.046911,0.0355 0.1643871,0.0656 0.2610557,0.0669 0.09667,0.001 0.2619574,0.0415 0.3673084,0.0893 0.1053493,0.0478 0.2734215,0.0878 0.373493,0.0889 0.1798469,0.002 0.5341284,0.0805 0.623601,0.13835 0.064756,0.0419 0.6349705,0.13792 0.6614577,0.11143 0.011974,-0.012 0.094933,-0.004 0.1843509,0.0167 0.089418,0.0212 0.3166573,0.0478 0.5049774,0.0592 0.18832,0.0114 0.4651461,0.0437 0.6151677,0.0718 0.1500217,0.0281 0.4803852,0.0577 0.7341419,0.0657 0.2537566,0.008 0.6294485,0.0241 0.8348692,0.0357 1.47504449,0.0833 2.64645336,0.0969 2.8206123,0.0327 0.055788,-0.0206 0.2101854,-0.0255 0.3431047,-0.0109 0.1329209,0.0146 0.3504269,0.01 0.4833462,-0.0103 0.1329193,-0.0202 0.3504253,-0.0407 0.4833462,-0.0454 0.1329193,-0.005 0.3504253,-0.0319 0.4833446,-0.0604 0.1329209,-0.0285 0.3899725,-0.0733 0.5712278,-0.0995 0.1812536,-0.0263 0.5272862,-0.0777 0.7689593,-0.11426 0.2416714,-0.0366 0.5326305,-0.0722 0.6465741,-0.0791 0.1139436,-0.007 0.2346947,-0.0354 0.2683363,-0.0633 0.060941,-0.0506 0.4119808,-0.1116 0.5790666,-0.10065 0.048334,0.003 0.1570864,-0.0216 0.2416731,-0.0551 0.084585,-0.0335 0.3614094,-0.10516 0.6151661,-0.15933 0.4825325,-0.10298 0.8348709,-0.23247 0.8348709,-0.30681 0,-0.024 0.074692,-0.0437 0.1659847,-0.0437 0.091291,0 0.2083237,-0.0297 0.2600725,-0.0659 0.051749,-0.0362 0.1255074,-0.0538 0.1639088,-0.0391 0.0384,0.0147 0.1240443,-0.01 0.1903163,-0.0549 0.1484256,-0.10058 0.5200702,-0.22878 0.6745543,-0.2327 0.063058,-0.002 0.225813,-0.0622 0.3616784,-0.13472 0.1358655,-0.0725 0.2854952,-0.13182 0.3325125,-0.13182 0.047016,0 0.2401785,-0.077 0.4292508,-0.1711 0.1890702,-0.0941 0.4173782,-0.18388 0.5073472,-0.1995 0.08997,-0.0156 0.17895,-0.0546 0.197733,-0.0866 0.04012,-0.0684 0.288716,-0.20192 0.375833,-0.20192 0.03324,0 0.106872,-0.0494 0.163633,-0.10985 0.05676,-0.0604 0.128082,-0.10985 0.158493,-0.10985 0.130253,0 0.713433,-0.27076 0.887881,-0.41222 0.10446,-0.0847 0.282507,-0.18685 0.395662,-0.22696 0.378533,-0.13422 0.73652,-0.33746 1.321648,-0.75035 0.0579,-0.0409 0.196318,-0.12269 0.307583,-0.18184 0.209446,-0.11135 0.782996,-0.58521 1.068941,-0.88315 0.08998,-0.0937 0.21875,-0.18149 0.286165,-0.19497 0.07069,-0.0141 0.258893,-0.15605 0.444637,-0.33528 0.177137,-0.17093 0.345425,-0.31077 0.373975,-0.31077 0.02855,0 0.180485,-0.13347 0.337631,-0.2966 0.157146,-0.16313 0.384073,-0.3748 0.504283,-0.47038 0.120211,-0.0956 0.386638,-0.33485 0.592059,-0.53173 0.205422,-0.19687 0.457632,-0.41064 0.560469,-0.47504 0.102837,-0.0644 0.247263,-0.20031 0.320949,-0.30203 0.202494,-0.27953 0.731094,-0.89045 1.051965,-1.21579 0.157088,-0.15927 0.32516,-0.36419 0.373494,-0.45537 0.12578,-0.23728 0.463884,-0.64711 0.533852,-0.64711 0.03264,0 0.05935,-0.0315 0.05935,-0.07 0,-0.0734 0.02998,-0.11674 0.418819,-0.60574 0.132161,-0.1662 0.240288,-0.34643 0.240288,-0.40052 0,-0.10101 0.09768,-0.25193 0.313363,-0.48413 0.06757,-0.0727 0.190851,-0.27048 0.273956,-0.43941 0.0831,-0.16892 0.222233,-0.40594 0.309174,-0.52669 0.08695,-0.12076 0.15808,-0.23724 0.15808,-0.25884 0,-0.0216 0.03836,-0.12052 0.08523,-0.21984 0.197807,-0.41909 0.391519,-0.8934 0.419333,-1.02676 0.01641,-0.0787 0.09822,-0.26658 0.181785,-0.41744 0.08356,-0.15086 0.201872,-0.38304 0.262906,-0.51596 0.06104,-0.13292 0.166596,-0.35043 0.234577,-0.48335 0.06798,-0.13292 0.165074,-0.40661 0.215774,-0.6082 0.05069,-0.20159 0.132213,-0.43132 0.181154,-0.5105 0.04894,-0.0792 0.0896,-0.1713 0.09035,-0.2047 6.64e-4,-0.0334 0.05001,-0.15959 0.109448,-0.28043 0.05944,-0.12083 0.10833,-0.26913 0.108642,-0.32955 4.99e-4,-0.0604 0.04004,-0.17459 0.08828,-0.25372 0.04825,-0.0791 0.08806,-0.16811 0.08848,-0.19773 4.98e-4,-0.0296 0.05024,-0.10081 0.110712,-0.15818 0.08234,-0.0781 0.09805,-0.11865 0.06255,-0.16142 -0.03349,-0.0403 -0.03392,-0.10718 -0.0015,-0.22775 0.02528,-0.0939 0.05396,-0.24861 0.06375,-0.3439 0.02473,-0.24055 0.103938,-0.65491 0.180121,-0.94221 0.09715,-0.36636 0.198718,-0.93427 0.198718,-1.11115 0,-0.0867 0.02859,-0.28248 0.06353,-0.43502 0.03494,-0.15255 0.06319,-0.39417 0.06277,-0.53695 -4.98e-4,-0.19011 0.02238,-0.29088 0.08569,-0.37652 0.06576,-0.0889 0.08253,-0.16879 0.07006,-0.3336 -0.009,-0.11918 0.0025,-0.31555 0.02547,-0.43639 0.02303,-0.12083 0.05243,-0.40754 0.06535,-0.63713 0.01292,-0.22959 0.03235,-0.47676 0.04317,-0.54926 0.01838,-0.12314 0.02418,-0.29937 0.02023,-0.61517 -9.96e-4,-0.0725 0.0052,-0.46382 0.01367,-0.8696 l 0.01531,-0.73779 0.319029,-0.3036 c 0.175468,-0.16698 0.362444,-0.31677 0.415502,-0.33287 0.05306,-0.0161 0.181821,-0.11595 0.286132,-0.22189 0.252455,-0.25639 0.461182,-0.41235 0.551871,-0.41235 0.04077,0 0.08492,-0.0281 0.09811,-0.0625 0.03561,-0.0928 0.134681,-0.11655 0.270234,-0.0648 0.108336,0.0414 0.113037,0.0514 0.04673,0.10016 -0.07788,0.0572 -0.07798,0.0717 -0.01259,1.80674 0.01093,0.29001 0.02577,0.70525 0.03299,0.92275 0.01274,0.38432 -0.02369,0.66299 -0.108159,0.82733 -0.02736,0.0532 -0.02428,0.10084 0.0091,0.14108 0.06528,0.0787 0.06569,1.28107 4.99e-4,1.57155 -0.02604,0.11611 -0.04593,0.30396 -0.04419,0.41743 0.0018,0.11348 -0.02872,0.33485 -0.0677,0.49194 -0.03897,0.15709 -0.08815,0.43155 -0.109281,0.60991 -0.04419,0.37301 -0.127563,0.75351 -0.179616,0.81977 -0.01968,0.0251 -0.05684,0.2129 -0.08258,0.41743 -0.05605,0.44543 -0.187385,0.99827 -0.277982,1.17016 -0.06869,0.13031 -0.163366,0.5765 -0.163366,0.76987 0,0.062 -0.02966,0.13742 -0.06591,0.16751 -0.03625,0.0301 -0.06591,0.0978 -0.06591,0.15038 0,0.0526 -0.02201,0.11769 -0.0489,0.14458 -0.02689,0.0269 -0.06666,0.14455 -0.08837,0.26145 -0.06437,0.3466 -0.351059,0.98151 -0.443193,0.98151 -0.09551,0 -0.103946,0.0688 -0.01274,0.10377 0.03625,0.0139 0.06591,0.0736 0.06591,0.13261 0,0.12914 -0.167461,0.5927 -0.249202,0.68983 -0.03211,0.0382 -0.05838,0.10935 -0.05838,0.15822 0,0.0489 -0.01825,0.14617 -0.04055,0.21624 -0.0223,0.0701 -0.05275,0.20096 -0.06766,0.29088 -0.01491,0.0899 -0.07319,0.21844 -0.129518,0.28561 -0.05633,0.0672 -0.116699,0.1876 -0.134155,0.26763 -0.04827,0.22126 -0.360589,0.87213 -0.431558,0.89936 -0.03444,0.0132 -0.07397,0.094 -0.08784,0.17941 -0.01387,0.0855 -0.05845,0.23053 -0.09909,0.32239 -0.217918,0.4927 -0.341479,0.72085 -0.420308,0.77606 -0.114176,0.08 -0.41207,0.53957 -0.507246,0.78258 -0.04098,0.10463 -0.130305,0.25505 -0.198505,0.33427 -0.06819,0.0792 -0.161854,0.21763 -0.208124,0.30758 -0.04627,0.09 -0.147245,0.22288 -0.224395,0.29538 -0.07715,0.0725 -0.158002,0.17137 -0.179681,0.2197 -0.04603,0.10263 -0.06214,0.12866 -0.424101,0.68486 -0.151046,0.2321 -0.274629,0.43725 -0.274629,0.45588 0,0.0999 -0.457311,0.63055 -0.840494,0.97523 -0.142386,0.12808 -0.69951,0.72679 -0.804986,0.86508 -0.06959,0.0912 -0.187551,0.19683 -0.262135,0.23466 -0.132174,0.067 -0.992459,0.921 -0.992459,0.98516 0,0.0177 -0.06603,0.073 -0.14674,0.12291 -0.08071,0.0499 -0.250543,0.18814 -0.377417,0.30725 -0.126873,0.1191 -0.263515,0.24403 -0.303651,0.27761 -0.04013,0.0336 -0.169523,0.17289 -0.287529,0.30958 -0.118006,0.13668 -0.2936,0.30329 -0.390207,0.37024 -0.09661,0.067 -0.222717,0.19629 -0.280247,0.28742 -0.05753,0.0911 -0.172071,0.20035 -0.254539,0.24271 -0.197369,0.10139 -0.743053,0.46871 -0.99039,0.66668 -0.317678,0.25428 -0.453187,0.34696 -0.615742,0.42116 -0.08426,0.0385 -0.196808,0.11089 -0.250115,0.16097 -0.05331,0.0501 -0.300742,0.20412 -0.549855,0.34231 -0.578114,0.32068 -0.96239,0.55245 -1.046133,0.63095 -0.03625,0.034 -0.114015,0.0869 -0.172809,0.11765 -0.05879,0.0307 -0.240787,0.15141 -0.404432,0.26817 -0.163645,0.11677 -0.395882,0.24448 -0.516083,0.28379 -0.120201,0.0393 -0.252699,0.10922 -0.29444,0.15535 -0.04174,0.0461 -0.10842,0.0839 -0.148175,0.0839 -0.03976,0 -0.09107,0.0187 -0.114027,0.0416 -0.0634,0.0632 -0.456711,0.26594 -0.516039,0.26594 -0.04833,0 -0.558925,0.2322 -0.82873,0.37687 -0.06415,0.0344 -0.14845,0.0625 -0.187343,0.0625 -0.03889,0 -0.10999,0.0198 -0.157997,0.0439 -0.09673,0.0487 -0.152109,0.0768 -0.5236803,0.2656 -0.1405537,0.0714 -0.2949298,0.12986 -0.3430582,0.12986 -0.048128,0 -0.1346614,0.0364 -0.1922959,0.0808 -0.1120404,0.0864 -0.3974575,0.17845 -0.6633509,0.21392 -0.089702,0.012 -0.1860465,0.0494 -0.2140981,0.0832 -0.028052,0.0338 -0.074732,0.0615 -0.1037318,0.0615 -0.029,0 -0.1658036,0.0612 -0.3040091,0.1361 -0.2005514,0.10862 -0.3221594,0.14095 -0.6023452,0.16016 -0.193083,0.0132 -0.361509,0.041 -0.3742802,0.0616 -0.012771,0.0207 -0.076429,0.0377 -0.1414621,0.0378 -0.065035,0 -0.1775634,0.0314 -0.2500649,0.0695 -0.1478045,0.0777 -0.4746373,0.14093 -0.9007808,0.17431 -0.4120655,0.0323 -1.1427894,0.14841 -1.2310929,0.19567 -0.041562,0.0222 -0.086058,0.03 -0.098881,0.0171 -0.012821,-0.0128 -0.1093433,5e-4 -0.214495,0.0291 -0.10515,0.0288 -0.3325407,0.0501 -0.5053129,0.0473 -0.1727722,-0.003 -0.4100509,0.0151 -0.5272862,0.0398 -0.2472714,0.0521 -0.459855,0.0745 -0.9940864,0.10507 -0.2120072,0.0121 -0.6074719,0.0514 -0.8788109,0.0872 -0.41790291,0.0552 -1.60123758,0.13386 -1.77860337,0.11818 -0.14975758,-0.0132 -0.34976429,-0.009 -0.42841878,0.009 -0.048336,0.011 -0.21640825,0.003 -0.37349465,-0.0174 z m -7.0963936,-3.3358 c 0.01493,-0.0242 0.00621,-0.0439 -0.019376,-0.0439 -0.025594,0 -0.046534,0.0198 -0.046534,0.0439 0,0.0242 0.00872,0.0439 0.019376,0.0439 0.010662,0 0.031597,-0.0198 0.046534,-0.0439 z M 3.0256655,277.09143 c -0.055364,-0.14562 -0.054521,-0.33423 0.00216,-0.48332 0.024758,-0.0651 0.047753,-0.38134 0.051099,-0.70269 0.00473,-0.45421 -0.00867,-0.60702 -0.060175,-0.68638 -0.036442,-0.0561 -0.078269,-0.18117 -0.092947,-0.27784 -0.014681,-0.0967 -0.05978,-0.31417 -0.1002226,-0.48334 -0.1034793,-0.43285 -0.1226576,-0.62192 -0.066599,-0.65656 0.026436,-0.0163 0.048065,-0.0876 0.048065,-0.15831 0,-0.0707 0.024164,-0.21894 0.053698,-0.32937 0.050478,-0.18873 0.046345,-0.21386 -0.068934,-0.41893 -0.067448,-0.11999 -0.1578354,-0.34512 -0.200862,-0.50028 -0.1118129,-0.40323 -0.4056284,-0.86381 -0.7391506,-1.15866 -0.1550271,-0.13706 -0.3248332,-0.2652 -0.3773442,-0.28477 -0.052511,-0.0196 -0.165915,-0.10855 -0.2520096,-0.19774 -0.086093,-0.0892 -0.2047315,-0.18452 -0.26364311,-0.21187 -0.41718219,-0.19366 -0.74047406,-0.32377 -0.80445754,-0.32377 -0.0413442,0 -0.13063245,-0.041 -0.19841738,-0.0911 -0.06778658,-0.0501 -0.25977522,-0.12748 -0.42664178,-0.17193 -0.16686491,-0.0444 -0.42214117,-0.14265 -0.56727859,-0.21825 -0.3334956,-0.17372 -0.5264193,-0.20396 -1.9990507,-0.31337 -1.3034913,-0.0968 -1.3941463,-0.0901 -2.4690828,0.18317 -0.185882,0.0473 -0.3539543,0.0814 -0.3734946,0.076 -0.1126848,-0.0316 -0.4743865,0.0823 -0.8839592,0.27839 -0.4851116,0.23224 -0.796526,0.48927 -1.0077643,0.83177 -0.056236,0.0912 -0.1904823,0.20811 -0.3196816,0.27842 -0.2135799,0.11625 -0.2273375,0.11821 -0.3347677,0.0478 -0.061619,-0.0404 -0.1499154,-0.15904 -0.1962153,-0.26371 -0.079384,-0.17946 -0.08026,-0.20492 -0.015379,-0.44669 0.091552,-0.34113 0.1229515,-0.80394 0.064904,-0.95662 -0.029516,-0.0776 -0.031571,-0.14181 -0.00555,-0.17317 0.022744,-0.0274 0.052242,-0.25733 0.065553,-0.51095 0.013319,-0.25363 0.043912,-0.52794 0.067999,-0.60959 0.024088,-0.0817 0.046675,-0.22995 0.050196,-0.32956 0.00352,-0.0996 0.02573,-0.24612 0.049356,-0.3256 0.028266,-0.0951 0.027984,-0.16271 -8.304e-4,-0.19773 -0.024079,-0.0293 -0.066956,-0.18175 -0.095282,-0.33884 -0.028327,-0.15709 -0.083992,-0.36471 -0.1236988,-0.46138 -0.078892,-0.19206 -0.3958151,-0.63646 -0.6697648,-0.93917 -0.095662,-0.1057 -0.173928,-0.21242 -0.173928,-0.23715 0,-0.0611 -0.2819129,-0.41084 -0.5015679,-0.62223 -0.205574,-0.19784 -0.55432,-0.44493 -0.687743,-0.48728 -0.04991,-0.0158 -0.153703,-0.083 -0.230659,-0.14919 -0.07695,-0.0662 -0.228898,-0.15521 -0.337652,-0.19778 -0.108752,-0.0426 -0.288415,-0.14247 -0.399248,-0.22201 -0.110835,-0.0795 -0.239855,-0.15679 -0.286713,-0.17166 -0.04686,-0.0149 -0.160529,-0.10021 -0.252602,-0.18964 -0.106949,-0.10388 -0.273169,-0.19938 -0.460275,-0.26445 -0.161079,-0.056 -0.342897,-0.13849 -0.404041,-0.18327 -0.06114,-0.0448 -0.258875,-0.14554 -0.439405,-0.22391 -0.180529,-0.0784 -0.34702,-0.16008 -0.36998,-0.18159 -0.02296,-0.0215 -0.09216,-0.0396 -0.153792,-0.0402 -0.11822,-10e-4 -0.546336,-0.13357 -0.703227,-0.21754 -0.051,-0.0273 -0.24533,-0.0782 -0.431849,-0.11318 -0.18652,-0.035 -0.428107,-0.0851 -0.536859,-0.11132 -0.108754,-0.0263 -0.800816,-0.0647 -1.537919,-0.0854 -1.655101,-0.0465 -2.182727,-0.0823 -2.240596,-0.15206 -0.08041,-0.0969 -0.06326,-0.52365 0.02667,-0.66351 0.121927,-0.18963 0.504064,-0.53673 0.624077,-0.56685 0.05758,-0.0145 0.157084,-0.0608 0.221119,-0.10299 0.339226,-0.22351 0.598683,-0.34367 0.819477,-0.37952 0.09667,-0.0157 0.235082,-0.0464 0.307583,-0.0681 0.135374,-0.0407 0.675171,-0.17845 1.142454,-0.29162 0.145003,-0.0351 0.362509,-0.0807 0.483345,-0.10139 0.120837,-0.0206 0.308682,-0.0607 0.417436,-0.089 0.108752,-0.0283 0.280397,-0.0426 0.381431,-0.0317 0.101035,0.0109 0.199902,0.004 0.219703,-0.0159 0.04829,-0.0479 1.147938,-0.0635 1.749684,-0.0248 0.568197,0.0365 0.770726,0.0669 0.845853,0.12682 0.03727,0.0297 0.07622,0.0261 0.121191,-0.0112 0.07016,-0.0582 0.134595,-0.0536 0.848994,0.0609 0.225469,0.0362 0.4361,0.0557 0.468069,0.0434 0.03197,-0.0123 0.144091,0.0161 0.249163,0.0631 0.105072,0.047 0.329454,0.11029 0.4986241,0.14071 0.1691716,0.0304 0.5053162,0.0947 0.7469893,0.14276 0.2416731,0.0481 0.6118164,0.10273 0.8225432,0.12142 0.2262348,0.0201 0.4601639,0.07 0.5712261,0.12201 0.1034494,0.0484 0.2671822,0.10168 0.3638524,0.11835 0.096669,0.0167 0.201905,0.0519 0.2338577,0.0783 0.083804,0.0693 0.5368288,0.25322 0.672764,0.27318 0.063633,0.009 0.1883267,0.0473 0.2770984,0.0844 0.088774,0.0371 0.2344423,0.0711 0.3237123,0.0756 0.089268,0.004 0.2239596,0.0446 0.2993142,0.0891 0.075355,0.0445 0.1999187,0.0809 0.2768111,0.0809 0.076891,0 0.193196,0.026 0.2584566,0.0578 0.065259,0.0318 0.2274073,0.0836 0.3603266,0.11513 0.1329193,0.0315 0.3048146,0.0954 0.3819861,0.14198 0.077173,0.0466 0.1760388,0.0931 0.2197031,0.10333 0.3765255,0.0886 0.4645516,0.12072 0.5410504,0.19722 0.048176,0.0482 0.1288854,0.0876 0.1793537,0.0876 0.050468,0 0.223483,0.0617 0.3844805,0.13719 0.1609958,0.0755 0.3816987,0.16315 0.4904525,0.19488 0.4362559,0.12727 0.5972633,0.19478 1.4060954,0.58955 0.41449847,0.2023 0.7626701,0.40125 0.92632977,0.52932 0.086553,0.0677 0.39088763,0.20388 0.67629959,0.30256 0.28541213,0.0987 0.54603264,0.20191 0.57915784,0.2294 0.033124,0.0275 0.1242536,0.082 0.2025095,0.12107 0.095743,0.0478 0.1494702,0.11116 0.1642542,0.19362 0.013136,0.0733 0.066124,0.14418 0.1318215,0.17637 0.060418,0.0296 0.1402565,0.11288 0.1774206,0.18505 0.037162,0.0722 0.1211995,0.21485 0.1867474,0.31708 0.065548,0.10223 0.1191766,0.20491 0.1191766,0.22818 0,0.074 0.1773824,0.34613 0.241713,0.37081 0.034045,0.0131 0.1038563,0.106 0.1551367,0.20651 0.051279,0.10052 0.2301326,0.31831 0.3974492,0.48397 0.1673183,0.16567 0.3042151,0.32057 0.3042151,0.34424 0,0.0803 0.4559855,0.53791 0.6187982,0.62097 0.089087,0.0455 0.2187448,0.1394 0.2881274,0.20878 0.121319,0.12132 0.4068374,0.21415 0.9036523,0.2938 0.1460458,0.0234 0.169175,0.0135 0.2246206,-0.0964 0.057842,-0.1146 0.2223038,-0.84632 0.1958615,-0.87142 -0.00664,-0.006 -0.1123709,-0.0776 -0.2349687,-0.15854 -0.1225978,-0.0809 -0.3639255,-0.30526 -0.5362841,-0.4986 -0.1723587,-0.19334 -0.3602835,-0.39479 -0.4176074,-0.44767 -0.067395,-0.0622 -0.1466055,-0.24075 -0.2241389,-0.50532 -0.065952,-0.22504 -0.1602452,-0.5062 -0.2095411,-0.6248 -0.071091,-0.17104 -0.08361,-0.26646 -0.060521,-0.46138 0.03747,-0.3163 0.1508138,-0.69728 0.2516093,-0.84571 0.043561,-0.0641 0.079201,-0.14463 0.079201,-0.17884 0,-0.0993 0.3061748,-0.42955 0.398258,-0.42955 0.046106,0 0.168147,0.0189 0.2712045,0.0421 0.1030574,0.0231 0.3343027,0.0739 0.5138757,0.1129 0.1795729,0.039 0.3750292,0.10901 0.4343459,0.15567 0.059317,0.0467 0.1343858,0.0848 0.1668201,0.0848 0.032434,0 0.091362,0.0494 0.1309497,0.10985 0.039587,0.0604 0.09442,0.11081 0.1218487,0.11198 0.027431,0.001 0.1388515,0.11168 0.2476053,0.24557 0.1087522,0.13388 0.2870065,0.3356 0.3961207,0.44825 0.287855,0.2972 0.5553228,0.76998 0.6113995,1.08072 0.025879,0.1434 0.047052,0.268 0.047052,0.27688 0,0.0661 0.3544825,0.13493 0.7250177,0.14082 0.2416731,0.004 0.5365066,0.011 0.655185,0.0158 0.2114078,0.009 0.2177485,0.005 0.3129988,-0.17431 0.053471,-0.10072 0.1101322,-0.25195 0.1259143,-0.33608 0.015777,-0.0841 0.067722,-0.20257 0.1154217,-0.26321 0.0477,-0.0606 0.086726,-0.12927 0.086726,-0.15251 0,-0.0232 0.077811,-0.13998 0.1729116,-0.25942 0.2388416,-0.29997 0.764178,-0.68898 1.057422,-0.78302 0.132921,-0.0426 0.266682,-0.0973 0.297248,-0.12154 0.07326,-0.0581 0.488353,-0.16065 0.845206,-0.2089 0.157088,-0.0212 0.348294,-0.0515 0.424904,-0.0673 0.12587,-0.0259 0.151688,-0.0115 0.26791,0.14891 0.108154,0.1493 0.133011,0.23453 0.156236,0.53573 0.01948,0.25255 0.01053,0.39911 -0.03032,0.49701 -0.03187,0.0764 -0.07167,0.21215 -0.08845,0.30176 -0.01678,0.0896 -0.05931,0.21813 -0.0945,0.28561 -0.0352,0.0675 -0.06412,0.20295 -0.06427,0.30104 -1.32e-4,0.0981 -0.0293,0.21673 -0.06478,0.26364 -0.03548,0.0469 -0.06514,0.12113 -0.06591,0.16493 -0.002,0.11235 -0.570132,0.67441 -0.763336,0.75514 -0.08845,0.0369 -0.160813,0.0853 -0.160813,0.1074 0,0.0221 -0.02657,0.0668 -0.05904,0.0993 -0.126576,0.12657 -0.281798,0.41895 -0.336827,0.63445 -0.05285,0.207 -0.04919,0.25223 0.04391,0.54177 0.05587,0.17376 0.129669,0.34401 0.163997,0.37834 0.08163,0.0816 0.250671,0.0798 0.319781,-0.004 0.03009,-0.0362 0.09995,-0.0659 0.155266,-0.0659 0.0954,0 0.32808,-0.22053 0.32808,-0.31095 0,-0.0223 0.02089,-0.0406 0.04643,-0.0406 0.06403,0 0.60093,-0.39328 0.716279,-0.52467 0.05177,-0.059 0.168286,-0.18971 0.258913,-0.29052 0.09063,-0.10082 0.164777,-0.19486 0.164777,-0.20899 0,-0.0141 0.06921,-0.14377 0.153792,-0.28809 0.08458,-0.14433 0.153791,-0.28708 0.153791,-0.31724 0,-0.0444 0.215239,-0.42662 0.443341,-0.78722 0.223558,-0.35342 0.287202,-0.43945 0.3253,-0.43971 0.02434,-1.6e-4 0.222048,-0.16823 0.439345,-0.37349 0.217296,-0.20526 0.418457,-0.3732 0.447024,-0.3732 0.02857,0 0.139957,-0.0672 0.247534,-0.1493 0.107576,-0.0821 0.24256,-0.17405 0.299963,-0.20431 0.0574,-0.0302 0.114258,-0.0678 0.126341,-0.0833 0.03986,-0.0514 0.355469,-0.22214 0.410656,-0.22214 0.02976,0 0.131677,-0.0396 0.226482,-0.0879 0.09481,-0.0483 0.195186,-0.0879 0.223068,-0.0879 0.02788,0 0.100968,-0.0395 0.162416,-0.0879 0.06145,-0.0483 0.148913,-0.0879 0.194368,-0.0879 0.04545,0 0.160974,-0.0408 0.256711,-0.0907 0.09574,-0.0499 0.249731,-0.0971 0.342208,-0.10485 0.09841,-0.008 0.21686,-0.0572 0.285613,-0.11799 0.16776,-0.14832 0.297632,-0.21371 0.424461,-0.21371 0.06608,0 0.110448,-0.0251 0.110448,-0.0624 0,-0.06 0.173963,-0.11747 0.593196,-0.19608 0.09667,-0.0181 0.215309,-0.0541 0.263643,-0.0799 0.04834,-0.0259 0.216409,-0.0611 0.373495,-0.0784 0.157088,-0.0173 0.405804,-0.0788 0.552706,-0.13686 0.146897,-0.058 0.289648,-0.10547 0.317215,-0.10547 0.02757,0 0.129023,-0.0411 0.225456,-0.0914 0.09643,-0.0503 0.240393,-0.0972 0.319921,-0.10428 0.07952,-0.007 0.23357,-0.0646 0.342324,-0.12779 0.119017,-0.0692 0.265005,-0.1151 0.366714,-0.11542 0.09294,-3.3e-4 0.221465,-0.0279 0.285613,-0.0614 0.09366,-0.0489 0.573196,-0.2094 0.665888,-0.22285 0.01209,-0.002 0.04628,-0.0186 0.07599,-0.0375 0.02971,-0.0189 0.198593,-0.0505 0.375297,-0.0703 0.176698,-0.0198 0.384387,-0.0687 0.461524,-0.10856 0.07714,-0.0399 0.234515,-0.0848 0.349727,-0.0998 0.115208,-0.015 0.230226,-0.0435 0.255589,-0.0632 0.02536,-0.0198 0.124228,-0.0305 0.219703,-0.0238 0.09547,0.007 0.203247,-0.003 0.239497,-0.0214 0.03625,-0.0185 0.303189,-0.064 0.593197,-0.10121 0.290007,-0.0372 0.63604,-0.0861 0.768959,-0.10859 0.232532,-0.0394 1.677808,-0.0697 5.18498,-0.10859 0.906275,-0.0101 1.819476,-0.0224 2.029341,-0.0274 0.209865,-0.005 0.39771,8.3e-4 0.417435,0.013 0.01973,0.0122 0.213824,0.008 0.431328,-0.01 0.431312,-0.0347 0.758141,0.021 0.905202,0.15405 0.06357,0.0575 0.08346,0.1358 0.08346,0.32842 v 0.25288 l -0.318569,0.28373 c -0.301181,0.26825 -0.604182,0.46764 -0.604182,0.39759 0,-0.0175 -0.02373,-0.008 -0.05273,0.0208 -0.029,0.029 -0.08026,0.0527 -0.113907,0.0527 -0.03364,0 -0.10968,0.0382 -0.168964,0.0848 -0.08815,0.0693 -0.181453,0.0852 -0.512246,0.087 -0.318332,0.002 -0.441888,0.0214 -0.580221,0.0923 -0.135474,0.0695 -0.251306,0.0888 -0.505316,0.0844 -0.184903,-0.003 -0.441396,0.0251 -0.584356,0.0646 -0.140139,0.0386 -0.30352,0.0703 -0.363064,0.0703 -0.05955,0 -0.249138,0.039 -0.421319,0.0867 -0.172176,0.0477 -0.33136,0.0754 -0.353733,0.0616 -0.02238,-0.0138 -0.07404,0.005 -0.114813,0.0416 -0.04077,0.0367 -0.242199,0.10855 -0.447622,0.15969 -0.205422,0.0512 -0.465149,0.14171 -0.577171,0.20125 -0.112027,0.0595 -0.247386,0.10825 -0.300804,0.10825 -0.05342,0 -0.149605,0.037 -0.213753,0.0821 -0.06415,0.0452 -0.166069,0.0973 -0.226487,0.11589 -0.06042,0.0186 -0.157009,0.0706 -0.214645,0.11562 -0.05763,0.045 -0.150018,0.0818 -0.205299,0.0818 -0.05528,0 -0.186085,0.0693 -0.290675,0.15398 -0.226308,0.18326 -0.463142,0.29967 -0.545408,0.26811 -0.03266,-0.0125 -0.07106,-0.004 -0.08535,0.0192 -0.01428,0.0231 -0.07324,0.042 -0.131026,0.042 -0.106354,0 -0.504924,0.24054 -0.504924,0.30473 0,0.0192 -0.09392,0.0701 -0.208718,0.11305 -0.114817,0.043 -0.317444,0.17974 -0.45039,0.30391 -0.177661,0.16592 -0.302777,0.242 -0.47236,0.28724 -0.12688,0.0338 -0.230689,0.0863 -0.230689,0.11654 0,0.0303 -0.03603,0.0664 -0.08006,0.0804 -0.04403,0.014 -0.121741,0.0994 -0.172691,0.18971 -0.05095,0.0904 -0.163769,0.24339 -0.250719,0.34006 -0.11298,0.12562 -0.151446,0.20312 -0.134809,0.27162 0.01806,0.0744 -0.02102,0.13216 -0.174538,0.25795 -0.1088,0.0892 -0.197814,0.18463 -0.197814,0.21218 0,0.0473 -0.133175,0.2002 -0.283554,0.32554 -0.03738,0.0312 -0.06797,0.093 -0.06797,0.13743 0,0.0444 -0.02966,0.10538 -0.06591,0.13547 -0.03625,0.0301 -0.06591,0.0885 -0.06591,0.12985 0,0.0413 -0.08031,0.13968 -0.178461,0.21856 -0.09815,0.0789 -0.196716,0.19143 -0.21903,0.25011 -0.02231,0.0587 -0.109666,0.14747 -0.194124,0.1973 -0.207474,0.12241 -0.963383,1.25544 -1.039392,1.55794 -0.02996,0.11922 -0.110247,0.33991 -0.17842,0.49042 -0.06818,0.15052 -0.123957,0.34166 -0.123957,0.42476 0,0.0831 -0.02375,0.15901 -0.05276,0.16868 -0.03846,0.0128 -0.0316,0.0622 0.02533,0.18216 0.06561,0.13827 0.07185,0.21297 0.03901,0.46744 l -0.03908,0.30288 0.167076,0.18278 c 0.282973,0.30956 0.34484,0.43733 0.283614,0.58571 -0.03954,0.0958 -0.101229,0.14194 -0.248861,0.18608 -0.107962,0.0323 -0.24017,0.059 -0.293804,0.0593 -0.138109,9.9e-4 -0.445184,-0.16818 -0.524131,-0.28867 -0.03665,-0.0559 -0.129279,-0.12287 -0.205841,-0.14876 -0.07656,-0.0259 -0.307279,-0.19455 -0.512701,-0.37481 -0.205422,-0.18026 -0.442701,-0.35078 -0.527286,-0.37895 -0.08459,-0.0282 -0.262546,-0.1009 -0.395465,-0.16165 -0.132919,-0.0607 -0.340539,-0.11889 -0.461376,-0.1292 -0.120836,-0.0103 -0.279628,-0.0456 -0.352872,-0.0784 -0.160813,-0.072 -0.67651,-0.15974 -0.73323,-0.12469 -0.07563,0.0467 -0.495469,0.02 -0.802209,-0.0512 -0.313728,-0.0728 -0.312424,-0.0729 -0.85797,0.0683 -0.08459,0.0219 -0.262545,0.0527 -0.395465,0.0685 -0.260368,0.031 -0.36777,0.0726 -0.505316,0.19607 -0.04833,0.0434 -0.176861,0.11392 -0.285613,0.15675 -0.108754,0.0428 -0.296599,0.1362 -0.417435,0.20749 -0.120837,0.0713 -0.328456,0.18158 -0.461376,0.24511 -0.132919,0.0635 -0.352473,0.18924 -0.487893,0.27937 -0.135422,0.0901 -0.26502,0.16388 -0.287996,0.16388 -0.02298,0 -0.139569,0.0627 -0.259095,0.13945 -0.119527,0.0767 -0.315365,0.1925 -0.435198,0.25735 -0.119832,0.0649 -0.238472,0.15528 -0.263643,0.20095 -0.02517,0.0457 -0.09685,0.14431 -0.159292,0.21919 -0.06244,0.0749 -0.189157,0.2628 -0.281595,0.41758 -0.09244,0.15478 -0.192231,0.31109 -0.221761,0.34734 -0.02953,0.0362 -0.06685,0.17546 -0.08293,0.30935 -0.02927,0.24379 -0.114311,0.54138 -0.170857,0.59793 -0.04272,0.0427 -0.03748,0.23517 0.0064,0.23517 0.02008,0 0.06261,0.0488 0.0945,0.10835 0.0485,0.0906 0.04792,0.12077 -0.0036,0.1842 -0.04029,0.0496 -0.04257,0.0644 -0.0066,0.0428 0.03759,-0.0226 0.05502,-0.001 0.05521,0.0685 1.67e-4,0.0558 0.03958,0.16078 0.08759,0.23328 0.100002,0.15099 0.109865,0.2516 0.03623,0.36951 -0.04169,0.0668 -0.03717,0.0972 0.02349,0.15786 0.05816,0.0582 0.06366,0.089 0.02433,0.13635 -0.03849,0.0464 -0.03814,0.0918 0.0015,0.18738 0.06529,0.15762 -0.01431,0.37118 -0.241842,0.64885 -0.242749,0.29625 -0.576458,0.35613 -0.959905,0.17225 -0.399565,-0.19161 -0.51003,-0.48434 -0.401475,-1.0639 0.0308,-0.16444 0.01743,-0.2104 -0.13426,-0.46138 -0.2999013,-0.49621 -0.6018444,-0.74175 -0.862842,-0.70164 -0.017698,0.003 -0.1198558,-0.0248 -0.2270154,-0.0612 -0.2133507,-0.0724 -0.3921581,-0.0909 -1.3446329,-0.13873 -0.5581046,-0.028 -0.7599215,-0.0315 -1.0875265,-0.0186 -0.042293,0.002 -0.2338228,0.005 -0.4256221,0.007 -0.346569,0.004 -0.5466421,0.0695 -0.9914608,0.32492 -0.060418,0.0347 -0.1444531,0.0734 -0.1867456,0.0861 -0.042294,0.0127 -0.076898,0.055 -0.076898,0.0941 0,0.0391 -0.105331,0.17902 -0.2340685,0.31087 -0.2692764,0.2758 -0.4722475,0.6231 -0.4657922,0.79702 0.00767,0.20676 -0.078236,0.77369 -0.1361013,0.89817 -0.044895,0.0966 -0.093609,0.12412 -0.2578188,0.14574 -0.1113546,0.0147 -0.3016144,0.0748 -0.4227972,0.13358 -0.279852,0.1358 -0.3645034,0.13463 -0.4178913,-0.006 z m 4.1558123,-9.19169 c 0.083295,-0.0665 0.1514433,-0.1434 0.1514449,-0.17097 0,-0.0276 0.037583,-0.13406 0.083514,-0.23666 0.095873,-0.21414 0.061115,-0.3935 -0.097828,-0.50483 -0.1148504,-0.0804 -0.3330024,-0.0823 -0.4365564,-0.004 -0.1086874,0.0825 -0.2609511,0.56762 -0.2253696,0.71806 0.036971,0.15631 0.1852377,0.31893 0.2907829,0.31893 0.045415,0 0.1507192,-0.0544 0.2340121,-0.12083 z m 2.5279445,-0.0814 c 0.029015,-0.035 0.041696,-0.0746 0.028183,-0.0881 -0.013518,-0.0135 0.015163,-0.0643 0.063711,-0.11285 0.048655,-0.0487 0.077894,-0.12098 0.065138,-0.16112 -0.1105026,-0.34774 -0.159282,-0.42864 -0.2996829,-0.49702 -0.2134338,-0.10395 -0.3568507,-0.0603 -0.5120871,0.15586 -0.1240459,0.17273 -0.1295463,0.19694 -0.0864,0.38019 0.073578,0.31251 0.1178281,0.37668 0.2908079,0.42171 0.175911,0.0458 0.3647924,0.004 0.4503306,-0.0986 z m 8.2351357,-6.34573 c -0.131634,-0.0514 -0.388338,-0.33655 -0.362844,-0.40298 0.02455,-0.064 -0.112471,-1.06926 -0.161396,-1.18416 -0.01686,-0.0396 -0.03733,-0.17801 -0.0455,-0.30759 -0.03851,-0.61095 -0.145659,-1.19446 -0.33432,-1.82057 -0.02236,-0.0742 -0.04067,-0.2324 -0.04068,-0.35152 -1.4e-5,-0.11912 -0.03948,-0.3204 -0.0877,-0.44727 -0.04822,-0.12688 -0.07737,-0.23069 -0.06476,-0.23069 0.01261,0 -0.0076,-0.059 -0.04485,-0.13106 -0.03728,-0.0721 -0.115006,-0.32419 -0.172735,-0.56024 -0.106135,-0.43397 -0.143472,-0.55526 -0.295958,-0.9614 -0.04639,-0.12354 -0.100422,-0.32637 -0.120079,-0.45072 -0.01966,-0.12435 -0.07,-0.26395 -0.111884,-0.31023 -0.04188,-0.0463 -0.08685,-0.16396 -0.09994,-0.26152 -0.01309,-0.0976 -0.06084,-0.21091 -0.106126,-0.25189 -0.04528,-0.041 -0.08234,-0.0987 -0.08234,-0.12823 0,-0.0715 -0.233927,-0.78807 -0.328541,-1.00642 -0.04122,-0.0951 -0.120919,-0.23354 -0.177105,-0.30758 -0.05619,-0.074 -0.184039,-0.34223 -0.284119,-0.59599 -0.242684,-0.61534 -0.260431,-0.64871 -0.45363,-0.85293 -0.09177,-0.097 -0.190635,-0.22046 -0.219703,-0.27435 -0.02907,-0.0539 -0.116473,-0.20645 -0.194234,-0.33901 -0.07776,-0.13256 -0.221454,-0.43341 -0.319315,-0.66854 -0.125795,-0.30226 -0.24852,-0.51021 -0.418856,-0.70975 -0.132511,-0.15522 -0.240928,-0.30918 -0.240928,-0.34213 0,-0.0329 -0.03551,-0.0857 -0.0789,-0.11732 -0.0434,-0.0316 -0.126077,-0.13651 -0.183733,-0.23318 -0.05766,-0.0967 -0.165503,-0.24672 -0.239664,-0.33345 -0.07416,-0.0867 -0.243589,-0.30258 -0.37651,-0.47967 -0.13292,-0.17708 -0.340539,-0.43547 -0.461375,-0.57419 -0.120837,-0.13873 -0.275363,-0.32823 -0.343394,-0.42112 -0.06803,-0.0929 -0.250931,-0.30153 -0.406448,-0.46365 -0.155519,-0.16211 -0.28276,-0.31308 -0.28276,-0.33548 0,-0.0224 -0.04666,-0.0713 -0.103686,-0.10867 -0.05703,-0.0374 -0.131177,-0.0947 -0.164777,-0.12734 -0.0336,-0.0327 -0.125355,-0.10458 -0.203898,-0.15981 -0.07854,-0.0552 -0.142807,-0.12509 -0.142807,-0.15525 0,-0.0302 -0.06426,-0.11631 -0.142806,-0.19145 -0.078545,-0.0751 -0.1823529,-0.1802 -0.2306872,-0.23347 -0.048336,-0.0533 -0.1867473,-0.1621 -0.3075847,-0.24186 -0.1208357,-0.0798 -0.4350651,-0.35403 -0.698288,-0.60949 -0.2632229,-0.25546 -0.4948984,-0.46447 -0.5148356,-0.46447 -0.019939,0 -0.1054572,-0.0692 -0.1900439,-0.15379 -0.084585,-0.0846 -0.1829891,-0.15379 -0.2186751,-0.15379 -0.035686,0 -0.090721,-0.0356 -0.1223005,-0.079 -0.09107,-0.12539 -0.5683797,-0.44824 -0.6626817,-0.44824 -0.047537,0 -0.1827549,-0.10602 -0.3039045,-0.2383 -0.1428007,-0.1559 -0.3196068,-0.28791 -0.5113879,-0.38179 -0.1612167,-0.0789 -0.3580746,-0.19909 -0.4374599,-0.26702 -0.079384,-0.0679 -0.1683629,-0.12389 -0.1977315,-0.12434 -0.07431,-0.001 -0.6086726,-0.27561 -0.8336569,-0.42819 -0.1025376,-0.0695 -0.2786429,-0.18931 -0.3913476,-0.26615 -0.1127031,-0.0768 -0.2183364,-0.13971 -0.2347412,-0.13971 -0.016408,0 -0.080156,-0.0396 -0.1416664,-0.088 -0.061512,-0.0484 -0.2055154,-0.1158 -0.3200071,-0.1498 -0.1144933,-0.034 -0.3534113,-0.12556 -0.5309299,-0.20348 -0.1775185,-0.0779 -0.4043512,-0.14397 -0.5040706,-0.1468 -0.099721,-0.003 -0.2090594,-0.0274 -0.2429735,-0.0547 -0.033914,-0.0273 -0.1110938,-0.0643 -0.1715133,-0.0823 -0.2620189,-0.0781 -0.2895241,-0.22193 -0.073873,-0.38641 0.2464328,-0.18796 0.8644903,-0.29388 1.2163271,-0.20845 0.1087522,0.0264 0.2867125,0.0562 0.3954647,0.0661 0.843153,0.0772 2.2719873,0.27717 2.900074,0.40596 0.1812553,0.0372 0.4185341,0.0837 0.5272862,0.10341 0.1087522,0.0197 0.2867125,0.0579 0.3954647,0.0848 0.1087521,0.0269 0.2894128,0.0661 0.4014649,0.0872 0.1120537,0.021 0.2842811,0.0794 0.38273,0.12959 0.098447,0.0502 0.2078405,0.0913 0.2430964,0.0913 0.074664,0 0.3500001,0.13841 0.3714818,0.18674 0.00805,0.0181 0.03962,0.033 0.070145,0.033 0.080818,0 0.3146345,0.12309 0.3773409,0.19864 0.029669,0.0358 0.091017,0.065 0.1363272,0.065 0.04531,0 0.2079334,0.0593 0.3613845,0.13182 0.1534506,0.0725 0.2955836,0.13182 0.3158536,0.13182 0.02027,0 0.07767,0.0355 0.127566,0.0789 0.04989,0.0434 0.169806,0.10563 0.266475,0.13831 0.158501,0.0536 0.521596,0.22571 1.142454,0.54157 0.120836,0.0615 0.406047,0.20367 0.6338,0.31599 0.429104,0.21163 0.697728,0.40114 0.703213,0.49612 0.0017,0.0302 0.05755,0.0549 0.124008,0.055 0.117773,4e-5 0.698542,0.2606 0.752766,0.33773 0.01495,0.0213 0.181413,0.11709 0.369922,0.21295 0.188508,0.0959 0.442864,0.26822 0.565236,0.38301 0.122372,0.11479 0.257307,0.20872 0.299857,0.20872 0.04255,0 0.148927,0.0643 0.236395,0.1428 0.08747,0.0786 0.260339,0.21202 0.384155,0.2966 0.123817,0.0846 0.299356,0.21806 0.390087,0.2966 0.09073,0.0785 0.197793,0.14281 0.237915,0.14281 0.04012,0 0.08617,0.0346 0.102317,0.0769 0.03702,0.0969 0.3062,0.35311 0.451194,0.4294 0.06043,0.0318 0.192349,0.13774 0.293148,0.23543 0.100797,0.0977 0.234441,0.19045 0.296984,0.20615 0.06254,0.0157 0.147697,0.0861 0.189227,0.15637 0.04153,0.0703 0.100376,0.11829 0.130764,0.10663 0.03039,-0.0117 0.07449,0.0147 0.098,0.0587 0.02351,0.0439 0.166214,0.16678 0.317115,0.27299 0.311612,0.21933 1.211716,1.0999 1.443037,1.41171 0.08459,0.11402 0.185728,0.21817 0.22476,0.23144 0.03903,0.0133 0.187331,0.14869 0.329554,0.30092 0.656229,0.70241 0.920721,1.00161 0.957362,1.08299 0.02182,0.0485 0.0558,0.0881 0.07551,0.0881 0.01971,0 0.119114,0.1137 0.220897,0.25266 0.101784,0.13896 0.196332,0.26254 0.210108,0.27463 0.01377,0.0121 0.09371,0.11095 0.177638,0.2197 0.08393,0.10875 0.168032,0.21751 0.186897,0.24167 0.133856,0.17148 0.341583,0.51356 0.341583,0.56251 0,0.0326 0.04943,0.10575 0.109852,0.16251 0.06042,0.0568 0.110193,0.13436 0.110612,0.17244 4.98e-4,0.0381 0.04609,0.11218 0.101501,0.16468 0.05541,0.0525 0.157027,0.18102 0.22582,0.28561 0.06879,0.1046 0.161526,0.24375 0.206077,0.30923 0.04456,0.0655 0.08101,0.14237 0.08101,0.17087 0,0.0285 0.105452,0.21219 0.234339,0.40822 0.423095,0.64352 0.825923,1.39032 1.04552,1.93828 0.322907,0.80577 0.382748,0.96409 0.517154,1.36823 0.07345,0.22085 0.171952,0.46801 0.218908,0.54926 0.09937,0.17194 0.325927,0.85824 0.321297,0.97329 -0.0018,0.0432 0.04777,0.21129 0.110023,0.37349 0.06225,0.1622 0.129171,0.36412 0.148716,0.44871 0.06123,0.26497 0.138637,0.54574 0.175652,0.63713 0.01957,0.0483 0.0466,0.17192 0.06006,0.27463 0.01347,0.10271 0.03498,0.2609 0.04782,0.35153 0.01285,0.0906 0.0078,0.18785 -0.01133,0.21605 -0.0213,0.0315 -0.303009,0.0708 -0.730433,0.10203 -0.795858,0.0581 -0.785098,0.0615 -0.937259,-0.29614 -0.12912,-0.30344 -0.281544,-0.76286 -0.295206,-0.88977 -0.0065,-0.0604 -0.04709,-0.17761 -0.09019,-0.26042 -0.04311,-0.0828 -0.146046,-0.35936 -0.228756,-0.61454 -0.08271,-0.25519 -0.175551,-0.5038 -0.206304,-0.55248 -0.03076,-0.0487 -0.1007,-0.21703 -0.155423,-0.37412 -0.10982,-0.31525 -0.543166,-1.2333 -0.663713,-1.4061 -0.04215,-0.0604 -0.09178,-0.15928 -0.110295,-0.2197 -0.01851,-0.0604 -0.04855,-0.11974 -0.06676,-0.13182 -0.01821,-0.0121 -0.145505,-0.24936 -0.282885,-0.52729 -0.137375,-0.27792 -0.277998,-0.53653 -0.312495,-0.57468 -0.0345,-0.0382 -0.06272,-0.0816 -0.06272,-0.0967 0,-0.015 -0.117233,-0.21118 -0.260514,-0.43595 -0.143286,-0.22477 -0.384299,-0.6064 -0.535587,-0.84807 -0.151292,-0.24167 -0.327619,-0.50861 -0.391844,-0.5932 -0.341641,-0.44995 -0.772839,-1.03088 -0.811348,-1.09309 -0.08255,-0.13336 -0.300764,-0.42278 -0.351938,-0.4668 -0.0281,-0.0242 -0.101045,-0.12327 -0.162105,-0.22024 -0.118793,-0.18866 -0.43926,-0.54625 -1.056831,-1.17927 -0.211463,-0.21676 -0.385085,-0.40577 -0.385824,-0.42004 -6.65e-4,-0.0143 -0.09131,-0.10504 -0.201274,-0.20171 -0.492316,-0.43281 -0.885496,-0.80465 -1.02217,-0.96669 -0.08154,-0.0967 -0.215005,-0.22341 -0.296599,-0.28165 -0.08159,-0.0582 -0.148352,-0.12199 -0.148352,-0.14167 0,-0.0197 -0.05438,-0.0644 -0.120836,-0.0993 -0.167524,-0.088 -0.49433,-0.41173 -0.49433,-0.48966 0,-0.0354 -0.0386,-0.0643 -0.08578,-0.0643 -0.09174,0 -0.503704,-0.27184 -0.968797,-0.63928 -0.157088,-0.1241 -0.433912,-0.30898 -0.615168,-0.41083 -0.181255,-0.10186 -0.349327,-0.20906 -0.373494,-0.23824 -0.06989,-0.0844 -0.276262,-0.20563 -0.349979,-0.20563 -0.0371,0 -0.06746,-0.0198 -0.06746,-0.0439 0,-0.0242 -0.03803,-0.0439 -0.08451,-0.0439 -0.04648,0 -0.140403,-0.0445 -0.208717,-0.0989 -0.48843,-0.38878 -0.731978,-0.30096 -0.343781,0.12396 0.108825,0.11912 0.285892,0.31545 0.393483,0.43628 0.107592,0.12084 0.354699,0.38659 0.549127,0.59056 0.194428,0.20398 0.353506,0.39525 0.353506,0.42505 0,0.0298 0.04943,0.11294 0.109852,0.18474 0.06042,0.0718 0.109851,0.16325 0.109851,0.20321 0,0.04 0.09569,0.16563 0.212655,0.27927 0.11696,0.11364 0.32427,0.37469 0.460689,0.58011 0.345016,0.51953 0.38779,0.58125 0.472018,0.68108 0.04078,0.0483 0.09722,0.16 0.125419,0.24815 0.0282,0.0882 0.111388,0.22317 0.184863,0.30006 0.07347,0.0769 0.16129,0.20608 0.195145,0.28711 0.03386,0.081 0.08163,0.15974 0.106165,0.1749 0.02453,0.0152 0.04461,0.065 0.04461,0.11067 0,0.0457 0.02472,0.0989 0.05493,0.11824 0.06498,0.0416 0.38448,0.65113 0.38448,0.73353 0,0.0313 0.03955,0.0927 0.08788,0.13648 0.04834,0.0437 0.08788,0.11184 0.08788,0.15131 0,0.0395 0.04239,0.15011 0.0942,0.24585 0.201011,0.37146 0.374927,0.75374 0.429021,0.94303 0.03108,0.10875 0.07447,0.22739 0.09643,0.26364 0.02196,0.0363 0.08244,0.15489 0.134403,0.26365 0.234836,0.49146 0.428867,0.87684 0.489624,0.97248 0.03636,0.0572 0.0799,0.18971 0.09676,0.2944 0.01686,0.10468 0.05819,0.2431 0.09183,0.30758 0.03364,0.0645 0.06137,0.1469 0.0616,0.18316 1.66e-4,0.0362 0.059,0.21421 0.130581,0.39546 0.07158,0.18125 0.130829,0.38152 0.131661,0.44502 8.3e-4,0.0635 0.03117,0.18646 0.06742,0.27322 0.03625,0.0868 0.06591,0.21136 0.06591,0.27688 0,0.0655 0.0189,0.17985 0.04201,0.25407 0.115556,0.37119 0.367511,1.11255 0.405739,1.19388 0.02385,0.0507 0.03858,0.12983 0.03273,0.17576 -0.0058,0.0459 0.0013,0.11317 0.01608,0.14942 0.0463,0.11423 0.131634,0.58575 0.1397,0.77192 0.0043,0.0983 0.02542,0.20705 0.04703,0.24167 0.0216,0.0346 0.05362,0.24091 0.07114,0.45842 0.04302,0.53395 0.104008,0.94082 0.163577,1.09122 0.02713,0.0685 0.03827,0.14239 0.02477,0.16424 -0.0135,0.0218 -0.0026,0.23877 0.02413,0.48206 0.04384,0.39836 0.04078,0.45849 -0.03069,0.60472 -0.06733,0.13775 -0.119348,0.1757 -0.343008,0.25025 -0.145005,0.0483 -0.311641,0.11517 -0.370296,0.14852 -0.123346,0.0701 -0.62074,0.19331 -0.652465,0.16158 -0.01178,-0.0118 -0.0534,-0.005 -0.09251,0.0158 -0.03912,0.0205 -0.110666,0.0217 -0.159,0.003 z"
       id="path1394"
       inkscape:connector-curvature="0"
       sodipodi:nodetypes="cccccccccccssscccscccccccccccccccscccssccccccsccccccccccccccccccccccccccccccssccssccsscscscccccsccccccssccsccsccsssscccscccccssscsssssccccccscscccccccccsccccccccscscscscssscccscscscscsscsccccccssccccccccscccccscsccccccccccccccscccscccccccscccccccccccccccsscccccscccscsccccccsscccccccsscscccscccccccccccccccccscccccccccccccsccscccccccccccscsccscscscscccsccccccccscccscccccsccccccccccscscsssscccscccccscsccccccccccsssccccccccsccccsccsccsscccccccccccsssccccsscscccccsccccccscccccccccccsccscccscccccccsscccccscccsscccccsscccscsscccscccccssccsscccccscccccsccccccccscccccscccccsssccscscccscccscssscccssscccsccccscccccscccccccccsccscscccccscccccscscscccsscccscccccscscsccsccsccccccccccsccccccccsccccscscsccccscccccccccccscccsccccsscccccccccccssccsccccccccccccccsccsscccscscscccsscccccccscssscccsscscsccccscsccsccccsscccccscscssscsccccccsssssscccccccsccscsscccssccccscccccccccccccccccccscccscccccccccccscsscsssssccscscscccccccscscsccccccccsccsccccccccccccccscc" />
  </g>
</svg>
